<?xml version="1.0" standalone="no"?>
<!DOCTYPE svg PUBLIC "-//W3C//DTD SVG 20010904//EN"
 "http://www.w3.org/TR/2001/REC-SVG-20010904/DTD/svg10.dtd">
<svg version="1.0" xmlns="http://www.w3.org/2000/svg"
 width="547.000000pt" height="456.000000pt" viewBox="0 0 547.000000 456.000000"
 preserveAspectRatio="xMidYMid meet">

<g transform="translate(0.000000,456.000000) scale(0.100000,-0.100000)"
fill="#000000" stroke="none">
<path d="M2220 3954 c-56 -24 -99 -63 -136 -120 -20 -31 -42 -54 -52 -54 -62
0 -121 -93 -107 -167 6 -34 61 -103 91 -114 6 -2 13 -28 16 -57 l5 -54 -92
-44 c-163 -77 -270 -179 -301 -283 -49 -165 50 -315 286 -431 47 -24 90 -46
96 -51 7 -5 7 -36 1 -96 -28 -285 84 -481 278 -487 51 -2 68 -7 94 -29 62 -51
142 -50 197 4 33 32 59 93 48 110 -8 14 9 36 54 69 l43 31 42 -35 c58 -47 129
-88 212 -121 56 -22 87 -28 150 -28 70 -1 87 3 133 28 61 33 93 67 126 134 40
79 49 142 44 287 l-5 133 103 51 c123 61 228 152 268 232 37 75 36 165 -2 241
-24 47 -28 66 -24 110 5 63 -12 105 -58 137 -46 32 -98 36 -147 11 l-41 -21
-49 21 -48 20 0 162 c0 147 -2 168 -24 225 -32 84 -104 164 -168 186 -128 44
-296 -2 -460 -125 -29 -21 -55 -39 -58 -39 -3 0 -33 21 -67 46 -123 90 -237
134 -347 134 -36 -1 -82 -8 -101 -16z m214 -98 c66 -23 152 -71 202 -111 l27
-21 -74 -80 c-41 -43 -90 -98 -109 -121 -34 -41 -37 -42 -135 -59 -55 -9 -126
-24 -157 -34 -56 -17 -56 -17 -62 4 -11 42 -5 59 38 100 67 66 72 135 15 200
l-28 33 24 35 c30 44 96 78 152 78 23 0 72 -11 107 -24z m796 2 c92 -47 136
-162 127 -331 -3 -54 -8 -101 -10 -104 -3 -2 -56 6 -119 20 -62 14 -133 28
-158 31 -40 6 -51 13 -94 67 -27 33 -76 88 -109 121 -33 33 -56 63 -51 66 128
94 253 151 329 152 23 0 61 -10 85 -22z m-350 -353 c0 -6 -53 -10 -145 -11
-80 -1 -145 2 -145 6 0 5 32 42 72 85 l71 76 74 -73 c40 -40 73 -77 73 -83z
m105 -130 c32 -42 131 -204 178 -294 l50 -94 -38 -76 c-44 -91 -158 -282 -189
-317 -20 -24 -26 -25 -181 -30 -88 -3 -194 -2 -235 3 l-74 8 -67 105 c-36 58
-89 149 -118 204 l-51 98 61 117 c78 146 167 280 193 292 12 5 119 7 238 6
204 -2 218 -3 233 -22z m-664 -83 c-27 -42 -61 -102 -76 -131 -23 -46 -29 -52
-37 -37 -20 35 -60 188 -51 197 10 10 157 47 190 48 20 1 18 -5 -26 -77z m924
51 c33 -8 65 -18 71 -21 8 -5 2 -38 -19 -109 -17 -57 -33 -103 -36 -103 -3 0
-24 33 -45 73 -22 39 -54 96 -73 125 -18 29 -33 55 -33 58 0 6 56 -3 135 -23z
m-1165 -135 c13 -46 36 -115 51 -154 l28 -72 -29 -73 c-15 -41 -38 -109 -51
-151 -12 -43 -26 -78 -31 -78 -22 0 -165 79 -215 119 -99 80 -130 179 -84 269
30 58 119 134 213 180 45 23 86 42 89 42 3 0 16 -37 29 -82z m1385 65 c30 -14
35 -22 35 -51 0 -90 101 -159 188 -129 20 7 25 3 42 -35 39 -85 21 -149 -64
-233 -57 -57 -202 -145 -238 -145 -8 0 -22 31 -35 81 -13 44 -35 110 -49 145
-29 74 -30 65 26 234 23 69 44 131 46 138 4 15 6 15 49 -5z m-1235 -435 c0
-12 106 -196 128 -221 8 -9 13 -19 11 -21 -4 -5 -113 16 -181 35 -21 5 -38 15
-38 22 0 30 62 207 70 202 6 -4 10 -11 10 -17z m1080 -126 l18 -63 -22 -10
c-28 -12 -190 -49 -194 -44 -3 2 18 41 46 87 27 46 62 106 78 133 l28 50 14
-45 c7 -25 22 -73 32 -108z m-1032 -198 c61 -13 123 -24 137 -24 16 0 35 -12
52 -32 16 -17 66 -74 112 -125 79 -89 82 -95 65 -109 -43 -33 -54 -36 -79 -20
-14 9 -44 16 -68 16 -58 0 -106 -32 -134 -91 l-22 -46 -46 7 c-116 18 -175
124 -175 314 0 121 6 150 29 141 9 -4 67 -18 129 -31z m1077 -48 c13 -152 -17
-269 -85 -330 -48 -43 -73 -50 -154 -44 -69 6 -173 52 -259 115 l-48 35 68 72
c38 39 88 94 111 121 40 49 43 51 119 63 43 6 110 20 148 31 39 10 75 19 82
20 7 1 14 -29 18 -83z m-495 -33 c-87 -95 -115 -123 -122 -123 -9 0 -141 137
-146 151 -2 5 60 9 149 9 l153 0 -34 -37z"/>
<path d="M2667 3187 c-119 -37 -180 -178 -128 -292 24 -53 91 -112 136 -121
151 -28 276 63 278 204 1 153 -138 255 -286 209z"/>
<path d="M715 1158 c-44 -15 -93 -55 -110 -88 -21 -40 -19 -125 3 -162 20 -35
122 -87 223 -113 80 -21 156 -61 181 -96 31 -41 34 -100 9 -153 -32 -65 -97
-96 -200 -96 -86 0 -135 18 -194 70 -25 22 -43 30 -55 25 -14 -6 -10 -13 26
-45 61 -55 134 -80 230 -80 82 0 158 26 194 66 47 53 61 148 31 211 -25 54
-81 87 -226 133 -111 36 -138 49 -169 80 -30 30 -38 45 -38 74 0 76 56 137
142 155 88 19 177 -3 243 -60 29 -26 36 -28 41 -15 9 23 -10 41 -79 76 -53 26
-70 30 -141 29 -45 0 -94 -5 -111 -11z"/>
<path d="M1475 1160 c-58 -18 -140 -75 -177 -125 -145 -190 -79 -482 132 -582
72 -35 194 -43 266 -19 58 20 144 80 144 101 0 23 -15 18 -52 -15 -106 -97
-305 -92 -421 11 -70 61 -100 132 -105 246 -7 143 29 229 125 302 60 46 115
64 204 64 83 1 144 -21 205 -75 41 -36 58 -18 20 21 -52 54 -111 76 -216 78
-52 1 -108 -2 -125 -7z"/>
<path d="M4716 1148 c-8 -13 -78 -174 -156 -358 -78 -184 -144 -341 -147 -347
-3 -8 2 -13 13 -13 14 0 29 24 60 98 l41 97 210 3 210 2 42 -100 c32 -73 48
-100 61 -100 15 0 8 23 -44 147 -34 82 -102 242 -151 358 -48 116 -92 216 -98
223 -14 18 -25 15 -41 -10z m58 -101 c16 -39 58 -139 93 -221 34 -82 63 -153
63 -157 0 -5 -85 -9 -190 -9 -119 0 -190 4 -190 10 0 16 182 450 189 450 3 0
19 -33 35 -73z"/>
<path d="M1990 795 c0 -318 2 -365 15 -365 13 0 15 47 15 365 0 318 -2 365
-15 365 -13 0 -15 -47 -15 -365z"/>
<path d="M2230 795 l0 -365 225 0 c193 0 225 2 225 15 0 13 -30 15 -208 15
l-209 0 -6 157 c-3 87 -3 161 -1 165 3 4 97 8 210 8 173 0 204 2 204 15 0 12
-32 15 -207 17 l-208 3 2 125 c2 69 3 140 3 158 l0 33 207 -2 c145 -1 208 2
211 10 3 8 -61 11 -222 11 l-226 0 0 -365z"/>
<path d="M2850 795 c0 -316 2 -365 15 -365 13 0 15 47 17 342 l3 342 95 -130
c275 -376 412 -554 425 -554 13 0 15 50 15 365 0 318 -2 365 -15 365 -13 0
-15 -43 -15 -330 0 -181 -3 -330 -7 -330 -5 1 -118 149 -253 330 -162 219
-250 330 -262 330 -17 0 -18 -21 -18 -365z"/>
<path d="M3570 1150 c0 -5 52 -11 123 -12 l122 -3 3 -352 c2 -303 4 -353 17
-353 13 0 15 50 17 353 l3 352 120 3 c66 1 124 7 129 12 7 7 -87 10 -262 10
-169 0 -272 -4 -272 -10z"/>
<path d="M4250 795 c0 -318 2 -365 15 -365 13 0 15 47 15 365 0 318 -2 365
-15 365 -13 0 -15 -47 -15 -365z"/>
</g>
</svg>
